<svg width="24" height="24" viewBox="0 0 24 24" fill="none" xmlns="http://www.w3.org/2000/svg">
<g clip-path="url(#clip0_17032_34)">
<path d="M0 0L24.5 24.5" stroke="white" stroke-width="1.5"/>
<mask id="mask0_17032_34" style="mask-type:luminance" maskUnits="userSpaceOnUse" x="0" y="0" width="24" height="24">
<path d="M24 0H0V24H24V0Z" fill="white"/>
</mask>
<g mask="url(#mask0_17032_34)">
<path d="M2 5.99C1.46957 5.99 0.960859 6.20071 0.585786 6.57579C0.210714 6.95086 0 7.45957 0 7.99V16.004C0 16.5344 0.210714 17.0431 0.585786 17.4182C0.960859 17.7933 1.46957 18.004 2 18.004H4.8L12 24V0L4.8 5.99H2ZM10 4.268V19.729L5.525 16.007H2V7.993H5.525L10 4.268Z" fill="white"/>
<path d="M20 12.0005C19.9998 10.6738 19.4732 9.40137 18.5358 8.46248C17.5984 7.52358 16.3268 6.99494 15 6.99255H14V8.99255H15C15.797 8.99255 16.5613 9.30915 17.1249 9.87269C17.6884 10.4362 18.005 11.2006 18.005 11.9975C18.005 12.7945 17.6884 13.5589 17.1249 14.1224C16.5613 14.6859 15.797 15.0025 15 15.0025H14V17.0025H15C16.3257 16.9999 17.5962 16.472 18.5334 15.5344C19.4705 14.5969 19.9979 13.3262 20 12.0005Z" fill="white"/>
<path d="M15 2.98427H14V4.98427H15C16.8597 4.98427 18.6433 5.72303 19.9583 7.03804C21.2733 8.35304 22.012 10.1366 22.012 11.9963C22.012 13.856 21.2733 15.6395 19.9583 16.9545C18.6433 18.2695 16.8597 19.0083 15 19.0083H14V21.0083H15C17.391 21.0083 19.684 20.0585 21.3746 18.3678C23.0652 16.6772 24.015 14.3842 24.015 11.9933C24.015 9.60235 23.0652 7.30934 21.3746 5.6187C19.684 3.92806 17.391 2.97827 15 2.97827V2.98427Z" fill="white"/>
</g>
</g>
<defs>
<clipPath id="clip0_17032_34">
<rect width="24" height="24" fill="white"/>
</clipPath>
</defs>
</svg>
